<svg xmlns="http://www.w3.org/2000/svg" viewBox="0 0 512 512" role="img" aria-label="Multi-Agent Research System logo">
  <defs>
    <linearGradient id="g" x1="0%" y1="0%" x2="100%" y2="100%">
      <stop offset="0%" style="stop-color:#4338ca"/>
      <stop offset="100%" style="stop-color:#7c3aed"/>
    </linearGradient>
    <linearGradient id="g2" x1="0%" y1="100%" x2="100%" y2="0%">
      <stop offset="0%" style="stop-color:#6366f1"/>
      <stop offset="100%" style="stop-color:#a78bfa"/>
    </linearGradient>
    <filter id="s" x="-20%" y="-20%" width="140%" height="140%">
      <feDropShadow dx="0" dy="8" stdDeviation="12" flood-color="#312e81" flood-opacity="0.25"/>
    </filter>
  </defs>
  <rect width="512" height="512" rx="112" fill="url(#g)"/>
  <circle cx="256" cy="256" r="200" fill="none" stroke="rgba(255,255,255,0.12)" stroke-width="2"/>
  <!-- graph nodes -->
  <g filter="url(#s)">
    <circle cx="256" cy="120" r="36" fill="url(#g2)" stroke="#fff" stroke-width="3"/>
    <circle cx="140" cy="300" r="32" fill="#fff" fill-opacity="0.95" stroke="#c7d2fe" stroke-width="3"/>
    <circle cx="372" cy="300" r="32" fill="#fff" fill-opacity="0.95" stroke="#c7d2fe" stroke-width="3"/>
    <circle cx="256" cy="380" r="28" fill="#e0e7ff" stroke="#a5b4fc" stroke-width="3"/>
  </g>
  <path d="M256 156 L160 278 M256 156 L352 278 M172 300 L244 368 M340 300 L268 368" stroke="rgba(255,255,255,0.55)" stroke-width="5" stroke-linecap="round" fill="none"/>
  <!-- citation brackets hint -->
  <path d="M196 200 L176 200 L176 240 L196 240" stroke="#fde68a" stroke-width="4" fill="none" stroke-linecap="round" stroke-linejoin="round"/>
  <path d="M316 200 L336 200 L336 240 L316 240" stroke="#fde68a" stroke-width="4" fill="none" stroke-linecap="round" stroke-linejoin="round"/>
</svg>
